# MagicaVoxel @ Ephtracy

# group
o 

# material
mtllib untitled-1.mtl
usemtl palette

# normals
vn -1 0 0
vn 1 0 0
vn 0 0 1
vn 0 0 -1
vn 0 -1 0
vn 0 1 0

# texcoords
vt 0.580078 0.5
vt 0.607422 0.5
vt 0.630859 0.5
vt 0.724609 0.5
vt 0.744141 0.5
vt 0.748047 0.5
vt 0.771484 0.5
vt 0.896484 0.5
vt 0.900391 0.5
vt 0.904297 0.5
vt 0.908203 0.5
vt 0.912109 0.5

# verts
v -0.5 0 -2.8
v -0.5 0 -3.3
v -0.5 0 -3.4
v -0.5 0 -3.6
v -0.5 0 -3.7
v -0.5 0 -3.8
v -0.5 0 -4.2
v -0.5 0 -4.3
v -0.5 0 -4.4
v -0.5 0 -4.5
v -0.5 0 -5
v -0.5 0 -5.1
v -0.5 0.1 -2.8
v -0.5 0.1 -2.9
v -0.5 0.1 -3
v -0.5 0.1 -3.1
v -0.5 0.1 -3.2
v -0.5 0.1 -3.3
v -0.5 0.1 -3.4
v -0.5 0.1 -3.5
v -0.5 0.1 -3.6
v -0.5 0.1 -3.7
v -0.5 0.1 -4.2
v -0.5 0.1 -4.3
v -0.5 0.1 -4.4
v -0.5 0.1 -4.5
v -0.5 0.1 -4.6
v -0.5 0.1 -4.7
v -0.5 0.1 -5
v -0.5 0.1 -5.1
v -0.5 0.2 -2.8
v -0.5 0.2 -2.9
v -0.5 0.2 -3.1
v -0.5 0.2 -3.2
v -0.5 0.2 -3.3
v -0.5 0.2 -3.4
v -0.5 0.2 -3.5
v -0.5 0.2 -3.6
v -0.5 0.2 -3.7
v -0.5 0.2 -4.3
v -0.5 0.2 -4.4
v -0.5 0.2 -4.5
v -0.5 0.2 -4.6
v -0.5 0.2 -4.7
v -0.5 0.2 -4.8
v -0.5 0.2 -5
v -0.5 0.2 -5.1
v -0.5 0.3 -2.8
v -0.5 0.3 -2.9
v -0.5 0.3 -3
v -0.5 0.3 -3.1
v -0.5 0.3 -3.2
v -0.5 0.3 -3.3
v -0.5 0.3 -3.4
v -0.5 0.3 -3.5
v -0.5 0.3 -3.6
v -0.5 0.3 -3.7
v -0.5 0.3 -4.4
v -0.5 0.3 -4.5
v -0.5 0.3 -4.6
v -0.5 0.3 -4.7
v -0.5 0.3 -4.8
v -0.5 0.3 -4.9
v -0.5 0.4 -2.8
v -0.5 0.4 -2.9
v -0.5 0.4 -3
v -0.5 0.4 -3.2
v -0.5 0.4 -3.3
v -0.5 0.4 -3.4
v -0.5 0.4 -3.5
v -0.5 0.4 -3.6
v -0.5 0.4 -3.7
v -0.5 0.4 -4.3
v -0.5 0.4 -4.4
v -0.5 0.4 -4.6
v -0.5 0.4 -4.7
v -0.5 0.4 -4.8
v -0.5 0.4 -4.9
v -0.5 0.4 -5
v -0.5 0.4 -5.1
v -0.5 0.5 -3
v -0.5 0.5 -3.1
v -0.5 0.5 -3.2
v -0.5 0.5 -3.3
v -0.5 0.5 -3.4
v -0.5 0.5 -3.5
v -0.5 0.5 -3.6
v -0.5 0.5 -3.7
v -0.5 0.5 -4.7
v -0.5 0.5 -4.8
v -0.5 0.5 -5
v -0.5 0.5 -5.1
v -0.5 0.6 -2.8
v -0.5 0.6 -2.9
v -0.5 0.6 -3
v -0.5 0.6 -3.4
v -0.5 0.6 -3.5
v -0.5 0.6 -3.6
v -0.5 0.6 -4.2
v -0.5 0.6 -4.4
v -0.5 0.6 -4.5
v -0.5 0.6 -4.6
v -0.5 0.6 -4.7
v -0.5 0.6 -4.8
v -0.5 0.6 -4.9
v -0.5 0.6 -5
v -0.5 0.6 -5.1
v -0.5 0.7 -2.8
v -0.5 0.7 -2.9
v -0.5 0.7 -3
v -0.5 0.7 -3.1
v -0.5 0.7 -3.2
v -0.5 0.7 -3.3
v -0.5 0.7 -3.4
v -0.5 0.7 -3.5
v -0.5 0.7 -3.6
v -0.5 0.7 -3.7
v -0.5 0.7 -3.8
v -0.5 0.7 -4.3
v -0.5 0.7 -4.4
v -0.5 0.7 -4.5
v -0.5 0.7 -4.6
v -0.5 0.7 -4.7
v -0.5 0.7 -4.8
v -0.5 0.7 -4.9
v -0.5 0.7 -5
v -0.5 0.7 -5.1
v -0.5 0.8 -2.8
v -0.5 0.8 -3
v -0.5 0.8 -3.1
v -0.5 0.8 -3.2
v -0.5 0.8 -3.3
v -0.5 0.8 -3.4
v -0.5 0.8 -3.5
v -0.5 0.8 -3.6
v -0.5 0.8 -3.7
v -0.5 0.8 -3.8
v -0.5 0.8 -4.2
v -0.5 0.8 -4.3
v -0.5 0.8 -4.5
v -0.5 0.8 -4.6
v -0.5 0.8 -4.8
v -0.5 0.8 -4.9
v -0.5 0.8 -5
v -0.5 0.8 -5.1
v -0.5 0.9 -2.8
v -0.5 0.9 -3
v -0.5 0.9 -3.2
v -0.5 0.9 -3.3
v -0.5 0.9 -3.5
v -0.5 0.9 -3.6
v -0.5 0.9 -3.8
v -0.5 0.9 -4.2
v -0.5 0.9 -4.8
v -0.5 0.9 -4.9
v -0.5 0.9 -5
v -0.5 0.9 -5.1
v 0.1 0 -2.8
v 0.1 0 -3.8
v 0.1 0 -4.2
v 0.1 0 -5
v 0.1 0 -5.1
v 0.1 0.2 -5
v 0.1 0.2 -5.1
v 0.1 0.9 -2.8
v 0.1 0.9 -3.8
v 0.1 0.9 -4.2
v 0.1 0.9 -5.1
v -0.5 0 -2.8
v -0.5 0.1 -2.8
v -0.5 0.2 -2.8
v -0.5 0.3 -2.8
v -0.5 0.4 -2.8
v -0.5 0.6 -2.8
v -0.5 0.7 -2.8
v -0.5 0.8 -2.8
v -0.5 0.9 -2.8
v -0.4 0.1 -2.8
v -0.4 0.2 -2.8
v -0.4 0.3 -2.8
v -0.4 0.4 -2.8
v -0.4 0.6 -2.8
v -0.4 0.7 -2.8
v -0.4 0.8 -2.8
v -0.4 0.9 -2.8
v -0.3 0.1 -2.8
v -0.3 0.2 -2.8
v -0.3 0.3 -2.8
v -0.3 0.6 -2.8
v -0.3 0.7 -2.8
v -0.3 0.8 -2.8
v -0.3 0.9 -2.8
v -0.2 0.1 -2.8
v -0.2 0.2 -2.8
v -0.2 0.3 -2.8
v -0.2 0.4 -2.8
v -0.2 0.6 -2.8
v -0.2 0.7 -2.8
v -0.2 0.8 -2.8
v -0.2 0.9 -2.8
v -0.1 0.3 -2.8
v -0.1 0.4 -2.8
v -0.1 0.5 -2.8
v -0.1 0.6 -2.8
v -0.1 0.7 -2.8
v 0 0 -2.8
v 0 0.4 -2.8
v 0 0.5 -2.8
v 0 0.6 -2.8
v 0 0.7 -2.8
v 0 0.9 -2.8
v 0.1 0 -2.8
v 0.1 0.9 -2.8
v -0.5 0 -4.2
v -0.5 0.1 -4.2
v -0.5 0.6 -4.2
v -0.5 0.8 -4.2
v -0.5 0.9 -4.2
v -0.4 0 -4.2
v -0.4 0.1 -4.2
v -0.4 0.6 -4.2
v -0.4 0.8 -4.2
v 0 0 -4.2
v 0 0.9 -4.2
v 0.1 0 -4.2
v 0.1 0.9 -4.2
v -0.5 0 -3.8
v -0.5 0.7 -3.8
v -0.5 0.8 -3.8
v -0.5 0.9 -3.8
v -0.4 0.3 -3.8
v -0.4 0.4 -3.8
v -0.4 0.7 -3.8
v -0.4 0.8 -3.8
v -0.2 0.3 -3.8
v -0.2 0.4 -3.8
v 0 0 -3.8
v 0 0.9 -3.8
v 0.1 0 -3.8
v 0.1 0.9 -3.8
v -0.5 0 -5.1
v -0.5 0.1 -5.1
v -0.5 0.2 -5.1
v -0.5 0.4 -5.1
v -0.5 0.5 -5.1
v -0.5 0.6 -5.1
v -0.5 0.7 -5.1
v -0.5 0.8 -5.1
v -0.5 0.9 -5.1
v -0.4 0 -5.1
v -0.4 0.1 -5.1
v -0.4 0.2 -5.1
v -0.4 0.3 -5.1
v -0.4 0.4 -5.1
v -0.4 0.5 -5.1
v -0.4 0.6 -5.1
v -0.4 0.7 -5.1
v -0.4 0.8 -5.1
v -0.4 0.9 -5.1
v -0.3 0 -5.1
v -0.3 0.1 -5.1
v -0.3 0.2 -5.1
v -0.3 0.3 -5.1
v -0.3 0.4 -5.1
v -0.3 0.5 -5.1
v -0.3 0.6 -5.1
v -0.3 0.7 -5.1
v -0.2 0 -5.1
v -0.2 0.1 -5.1
v -0.2 0.2 -5.1
v -0.2 0.3 -5.1
v -0.2 0.4 -5.1
v -0.2 0.5 -5.1
v -0.2 0.6 -5.1
v -0.2 0.7 -5.1
v -0.2 0.8 -5.1
v -0.2 0.9 -5.1
v -0.1 0 -5.1
v -0.1 0.1 -5.1
v -0.1 0.2 -5.1
v -0.1 0.3 -5.1
v -0.1 0.4 -5.1
v -0.1 0.5 -5.1
v -0.1 0.6 -5.1
v -0.1 0.7 -5.1
v -0.1 0.8 -5.1
v -0.1 0.9 -5.1
v 0 0 -5.1
v 0 0.1 -5.1
v 0 0.2 -5.1
v 0 0.3 -5.1
v 0 0.4 -5.1
v 0 0.5 -5.1
v 0 0.6 -5.1
v 0 0.7 -5.1
v 0 0.8 -5.1
v 0 0.9 -5.1
v 0.1 0 -5.1
v 0.1 0.2 -5.1
v 0.1 0.9 -5.1
v -0.5 0 -2.8
v 0 0 -2.8
v 0.1 0 -2.8
v -0.5 0 -3.3
v -0.4 0 -3.3
v -0.5 0 -3.4
v -0.4 0 -3.4
v -0.5 0 -3.6
v -0.4 0 -3.6
v -0.5 0 -3.7
v -0.4 0 -3.7
v -0.5 0 -3.8
v 0 0 -3.8
v 0.1 0 -3.8
v -0.5 0 -4.2
v -0.4 0 -4.2
v 0 0 -4.2
v 0.1 0 -4.2
v -0.5 0 -4.3
v -0.4 0 -4.3
v -0.5 0 -4.4
v -0.4 0 -4.4
v -0.5 0 -4.5
v -0.4 0 -4.5
v -0.5 0 -5
v -0.4 0 -5
v -0.3 0 -5
v -0.2 0 -5
v -0.1 0 -5
v 0 0 -5
v 0.1 0 -5
v -0.5 0 -5.1
v -0.4 0 -5.1
v -0.3 0 -5.1
v -0.2 0 -5.1
v -0.1 0 -5.1
v 0 0 -5.1
v 0.1 0 -5.1
v -0.5 0.9 -2.8
v -0.4 0.9 -2.8
v -0.3 0.9 -2.8
v -0.2 0.9 -2.8
v 0 0.9 -2.8
v 0.1 0.9 -2.8
v -0.5 0.9 -3
v -0.4 0.9 -3
v -0.1 0.9 -3.1
v 0 0.9 -3.1
v -0.5 0.9 -3.2
v -0.4 0.9 -3.2
v -0.3 0.9 -3.2
v -0.2 0.9 -3.2
v -0.1 0.9 -3.2
v 0 0.9 -3.2
v -0.5 0.9 -3.3
v -0.4 0.9 -3.3
v -0.3 0.9 -3.3
v -0.2 0.9 -3.3
v -0.1 0.9 -3.3
v 0 0.9 -3.3
v -0.5 0.9 -3.5
v -0.4 0.9 -3.5
v -0.1 0.9 -3.5
v 0 0.9 -3.5
v -0.5 0.9 -3.6
v -0.4 0.9 -3.6
v -0.5 0.9 -3.8
v 0 0.9 -3.8
v 0.1 0.9 -3.8
v -0.5 0.9 -4.2
v 0 0.9 -4.2
v 0.1 0.9 -4.2
v -0.4 0.9 -4.7
v -0.3 0.9 -4.7
v -0.2 0.9 -4.7
v -0.1 0.9 -4.7
v 0 0.9 -4.7
v -0.5 0.9 -4.8
v -0.4 0.9 -4.8
v -0.3 0.9 -4.8
v -0.2 0.9 -4.8
v -0.1 0.9 -4.8
v 0 0.9 -4.8
v -0.5 0.9 -4.9
v -0.4 0.9 -4.9
v -0.3 0.9 -4.9
v -0.2 0.9 -4.9
v -0.1 0.9 -4.9
v -0.5 0.9 -5
v -0.4 0.9 -5
v -0.3 0.9 -5
v -0.2 0.9 -5
v -0.1 0.9 -5
v 0 0.9 -5
v -0.5 0.9 -5.1
v -0.4 0.9 -5.1
v -0.2 0.9 -5.1
v -0.1 0.9 -5.1
v 0 0.9 -5.1
v 0.1 0.9 -5.1

# faces
f 13/8/1 2/8/1 1/8/1
f 14/8/1 2/8/1 13/8/1
f 15/8/1 2/8/1 14/8/1
f 16/8/1 2/8/1 15/8/1
f 17/8/1 2/8/1 16/8/1
f 18/7/1 3/7/1 2/7/1
f 18/8/1 2/8/1 17/8/1
f 19/8/1 4/8/1 3/8/1
f 19/7/1 3/7/1 18/7/1
f 20/8/1 4/8/1 19/8/1
f 21/10/1 5/10/1 4/10/1
f 21/8/1 4/8/1 20/8/1
f 22/8/1 6/8/1 5/8/1
f 22/10/1 5/10/1 21/10/1
f 23/9/1 8/9/1 7/9/1
f 24/8/1 9/8/1 8/8/1
f 24/9/1 8/9/1 23/9/1
f 25/10/1 10/10/1 9/10/1
f 25/8/1 9/8/1 24/8/1
f 26/8/1 11/8/1 10/8/1
f 26/10/1 10/10/1 25/10/1
f 27/8/1 11/8/1 26/8/1
f 28/8/1 11/8/1 27/8/1
f 29/12/1 12/12/1 11/12/1
f 29/8/1 11/8/1 28/8/1
f 30/12/1 12/12/1 29/12/1
f 31/9/1 14/9/1 13/9/1
f 32/10/1 15/10/1 14/10/1
f 32/9/1 14/9/1 31/9/1
f 33/7/1 17/7/1 16/7/1
f 33/8/1 16/8/1 15/8/1
f 34/10/1 18/10/1 17/10/1
f 34/7/1 17/7/1 33/7/1
f 34/10/1 19/10/1 18/10/1
f 35/10/1 19/10/1 34/10/1
f 36/7/1 20/7/1 19/7/1
f 36/10/1 19/10/1 35/10/1
f 37/8/1 21/8/1 20/8/1
f 37/7/1 20/7/1 36/7/1
f 37/8/1 22/8/1 21/8/1
f 38/8/1 22/8/1 37/8/1
f 39/8/1 6/8/1 22/8/1
f 39/8/1 22/8/1 38/8/1
f 40/8/1 24/8/1 23/8/1
f 40/8/1 25/8/1 24/8/1
f 40/8/1 26/8/1 25/8/1
f 41/8/1 26/8/1 40/8/1
f 42/10/1 27/10/1 26/10/1
f 42/8/1 26/8/1 41/8/1
f 43/9/1 28/9/1 27/9/1
f 43/10/1 27/10/1 42/10/1
f 44/8/1 29/8/1 28/8/1
f 44/9/1 28/9/1 43/9/1
f 45/8/1 29/8/1 44/8/1
f 46/11/1 30/11/1 29/11/1
f 46/8/1 29/8/1 45/8/1
f 47/11/1 30/11/1 46/11/1
f 48/8/1 32/8/1 31/8/1
f 49/10/1 15/10/1 32/10/1
f 49/8/1 32/8/1 48/8/1
f 50/8/1 33/8/1 15/8/1
f 50/10/1 15/10/1 49/10/1
f 50/8/1 34/8/1 33/8/1
f 51/8/1 34/8/1 50/8/1
f 52/7/1 35/7/1 34/7/1
f 52/8/1 34/8/1 51/8/1
f 53/8/1 36/8/1 35/8/1
f 53/7/1 35/7/1 52/7/1
f 53/8/1 38/8/1 37/8/1
f 53/8/1 37/8/1 36/8/1
f 54/8/1 38/8/1 53/8/1
f 55/8/1 38/8/1 54/8/1
f 56/9/1 39/9/1 38/9/1
f 56/8/1 38/8/1 55/8/1
f 57/8/1 6/8/1 39/8/1
f 57/9/1 39/9/1 56/9/1
f 58/9/1 42/9/1 41/9/1
f 58/10/1 41/10/1 40/10/1
f 59/8/1 43/8/1 42/8/1
f 59/9/1 42/9/1 58/9/1
f 59/8/1 44/8/1 43/8/1
f 60/8/1 44/8/1 59/8/1
f 61/9/1 45/9/1 44/9/1
f 61/8/1 44/8/1 60/8/1
f 62/8/1 47/8/1 46/8/1
f 62/9/1 45/9/1 61/9/1
f 62/8/1 46/8/1 45/8/1
f 63/8/1 47/8/1 62/8/1
f 64/7/1 49/7/1 48/7/1
f 65/8/1 50/8/1 49/8/1
f 65/7/1 49/7/1 64/7/1
f 66/7/1 51/7/1 50/7/1
f 66/8/1 50/8/1 65/8/1
f 67/8/1 52/8/1 51/8/1
f 67/8/1 54/8/1 53/8/1
f 67/8/1 53/8/1 52/8/1
f 68/8/1 54/8/1 67/8/1
f 69/7/1 55/7/1 54/7/1
f 69/8/1 54/8/1 68/8/1
f 70/8/1 56/8/1 55/8/1
f 70/7/1 55/7/1 69/7/1
f 70/8/1 57/8/1 56/8/1
f 71/8/1 57/8/1 70/8/1
f 72/8/1 6/8/1 57/8/1
f 72/8/1 57/8/1 71/8/1
f 73/10/1 58/10/1 40/10/1
f 73/8/1 40/8/1 23/8/1
f 74/8/1 60/8/1 59/8/1
f 74/10/1 58/10/1 73/10/1
f 74/8/1 59/8/1 58/8/1
f 75/9/1 61/9/1 60/9/1
f 75/8/1 60/8/1 74/8/1
f 76/8/1 62/8/1 61/8/1
f 76/9/1 61/9/1 75/9/1
f 77/10/1 63/10/1 62/10/1
f 77/8/1 62/8/1 76/8/1
f 78/8/1 47/8/1 63/8/1
f 78/10/1 63/10/1 77/10/1
f 79/8/1 47/8/1 78/8/1
f 80/8/1 47/8/1 79/8/1
f 81/7/1 51/7/1 66/7/1
f 81/7/1 66/7/1 65/7/1
f 82/8/1 67/8/1 51/8/1
f 82/7/1 51/7/1 81/7/1
f 83/10/1 68/10/1 67/10/1
f 83/8/1 67/8/1 82/8/1
f 84/8/1 71/8/1 70/8/1
f 84/10/1 68/10/1 83/10/1
f 84/8/1 69/8/1 68/8/1
f 84/8/1 70/8/1 69/8/1
f 85/8/1 71/8/1 84/8/1
f 86/8/1 71/8/1 85/8/1
f 87/9/1 72/9/1 71/9/1
f 87/8/1 71/8/1 86/8/1
f 88/8/1 6/8/1 72/8/1
f 88/9/1 72/9/1 87/9/1
f 89/10/1 77/10/1 76/10/1
f 89/8/1 74/8/1 73/8/1
f 89/8/1 76/8/1 75/8/1
f 89/8/1 75/8/1 74/8/1
f 90/8/1 79/8/1 78/8/1
f 90/10/1 77/10/1 89/10/1
f 90/8/1 78/8/1 77/8/1
f 91/3/1 80/3/1 79/3/1
f 91/8/1 79/8/1 90/8/1
f 92/3/1 80/3/1 91/3/1
f 93/8/1 65/8/1 64/8/1
f 94/7/1 81/7/1 65/7/1
f 94/8/1 65/8/1 93/8/1
f 95/8/1 82/8/1 81/8/1
f 95/7/1 81/7/1 94/7/1
f 96/9/1 86/9/1 85/9/1
f 96/8/1 85/8/1 84/8/1
f 97/8/1 88/8/1 87/8/1
f 97/9/1 86/9/1 96/9/1
f 97/8/1 87/8/1 86/8/1
f 98/8/1 88/8/1 97/8/1
f 99/8/1 89/8/1 73/8/1
f 99/8/1 73/8/1 23/8/1
f 99/8/1 90/8/1 89/8/1
f 99/8/1 91/8/1 90/8/1
f 100/8/1 91/8/1 99/8/1
f 101/8/1 91/8/1 100/8/1
f 102/8/1 91/8/1 101/8/1
f 103/8/1 91/8/1 102/8/1
f 104/8/1 91/8/1 103/8/1
f 105/8/1 91/8/1 104/8/1
f 106/6/1 92/6/1 91/6/1
f 106/8/1 91/8/1 105/8/1
f 107/6/1 92/6/1 106/6/1
f 108/10/1 94/10/1 93/10/1
f 109/9/1 95/9/1 94/9/1
f 109/10/1 94/10/1 108/10/1
f 110/8/1 82/8/1 95/8/1
f 110/9/1 95/9/1 109/9/1
f 111/9/1 83/9/1 82/9/1
f 111/8/1 82/8/1 110/8/1
f 111/9/1 84/9/1 83/9/1
f 112/9/1 84/9/1 111/9/1
f 113/8/1 96/8/1 84/8/1
f 113/9/1 84/9/1 112/9/1
f 113/8/1 97/8/1 96/8/1
f 114/8/1 97/8/1 113/8/1
f 115/9/1 98/9/1 97/9/1
f 115/8/1 97/8/1 114/8/1
f 116/8/1 88/8/1 98/8/1
f 116/9/1 98/9/1 115/9/1
f 117/8/1 6/8/1 88/8/1
f 117/8/1 88/8/1 116/8/1
f 118/8/1 6/8/1 117/8/1
f 119/9/1 100/9/1 99/9/1
f 120/8/1 101/8/1 100/8/1
f 120/9/1 100/9/1 119/9/1
f 121/10/1 102/10/1 101/10/1
f 121/8/1 101/8/1 120/8/1
f 122/8/1 103/8/1 102/8/1
f 122/10/1 102/10/1 121/10/1
f 123/10/1 104/10/1 103/10/1
f 123/8/1 103/8/1 122/8/1
f 124/8/1 105/8/1 104/8/1
f 124/10/1 104/10/1 123/10/1
f 125/10/1 106/10/1 105/10/1
f 125/8/1 105/8/1 124/8/1
f 126/9/1 107/9/1 106/9/1
f 126/10/1 106/10/1 125/10/1
f 127/9/1 107/9/1 126/9/1
f 128/8/1 110/8/1 109/8/1
f 128/8/1 109/8/1 108/8/1
f 128/8/1 111/8/1 110/8/1
f 129/8/1 111/8/1 128/8/1
f 130/7/1 112/7/1 111/7/1
f 130/8/1 111/8/1 129/8/1
f 131/8/1 114/8/1 113/8/1
f 131/7/1 112/7/1 130/7/1
f 131/8/1 113/8/1 112/8/1
f 132/8/1 114/8/1 131/8/1
f 133/10/1 115/10/1 114/10/1
f 133/8/1 114/8/1 132/8/1
f 134/8/1 116/8/1 115/8/1
f 134/10/1 115/10/1 133/10/1
f 134/8/1 117/8/1 116/8/1
f 135/8/1 117/8/1 134/8/1
f 136/7/1 118/7/1 117/7/1
f 136/8/1 117/8/1 135/8/1
f 137/7/1 118/7/1 136/7/1
f 138/9/1 119/9/1 99/9/1
f 139/8/1 120/8/1 119/8/1
f 139/9/1 119/9/1 138/9/1
f 139/8/1 121/8/1 120/8/1
f 140/9/1 122/9/1 121/9/1
f 140/8/1 121/8/1 139/8/1
f 141/8/1 125/8/1 124/8/1
f 141/9/1 122/9/1 140/9/1
f 141/8/1 123/8/1 122/8/1
f 141/8/1 127/8/1 126/8/1
f 141/8/1 126/8/1 125/8/1
f 141/8/1 124/8/1 123/8/1
f 142/8/1 127/8/1 141/8/1
f 143/8/1 127/8/1 142/8/1
f 144/8/1 127/8/1 143/8/1
f 145/8/1 127/8/1 144/8/1
f 146/7/1 129/7/1 128/7/1
f 147/8/1 130/8/1 129/8/1
f 147/7/1 129/7/1 146/7/1
f 147/8/1 131/8/1 130/8/1
f 148/7/1 132/7/1 131/7/1
f 148/8/1 131/8/1 147/8/1
f 149/8/1 133/8/1 132/8/1
f 149/7/1 132/7/1 148/7/1
f 149/8/1 134/8/1 133/8/1
f 150/9/1 135/9/1 134/9/1
f 150/8/1 134/8/1 149/8/1
f 151/8/1 137/8/1 136/8/1
f 151/9/1 135/9/1 150/9/1
f 151/8/1 136/8/1 135/8/1
f 152/8/1 137/8/1 151/8/1
f 153/8/1 140/8/1 139/8/1
f 153/8/1 139/8/1 138/8/1
f 153/8/1 141/8/1 140/8/1
f 153/8/1 142/8/1 141/8/1
f 154/1/1 143/1/1 142/1/1
f 154/8/1 142/8/1 153/8/1
f 155/8/1 144/8/1 143/8/1
f 155/1/1 143/1/1 154/1/1
f 156/1/1 145/1/1 144/1/1
f 156/8/1 144/8/1 155/8/1
f 157/1/1 145/1/1 156/1/1
f 160/9/2 161/9/2 163/9/2
f 161/11/2 162/11/2 163/11/2
f 163/11/2 162/11/2 164/11/2
f 158/9/2 159/9/2 165/9/2
f 165/9/2 159/9/2 166/9/2
f 160/9/2 163/9/2 167/9/2
f 163/9/2 164/9/2 167/9/2
f 167/9/2 164/9/2 168/9/2
f 178/8/3 170/8/3 169/8/3
f 178/9/3 171/9/3 170/9/3
f 179/8/3 172/8/3 171/8/3
f 179/9/3 171/9/3 178/9/3
f 180/7/3 173/7/3 172/7/3
f 180/8/3 172/8/3 179/8/3
f 181/8/3 174/8/3 173/8/3
f 181/7/3 173/7/3 180/7/3
f 182/10/3 175/10/3 174/10/3
f 182/8/3 174/8/3 181/8/3
f 183/8/3 176/8/3 175/8/3
f 183/10/3 175/10/3 182/10/3
f 184/7/3 177/7/3 176/7/3
f 184/8/3 176/8/3 183/8/3
f 185/7/3 177/7/3 184/7/3
f 186/8/3 178/8/3 169/8/3
f 186/8/3 179/8/3 178/8/3
f 187/10/3 180/10/3 179/10/3
f 187/8/3 179/8/3 186/8/3
f 188/8/3 182/8/3 181/8/3
f 188/10/3 180/10/3 187/10/3
f 188/8/3 181/8/3 180/8/3
f 189/7/3 183/7/3 182/7/3
f 189/8/3 182/8/3 188/8/3
f 190/8/3 185/8/3 184/8/3
f 190/7/3 183/7/3 189/7/3
f 190/8/3 184/8/3 183/8/3
f 191/8/3 185/8/3 190/8/3
f 192/8/3 185/8/3 191/8/3
f 193/2/3 187/2/3 186/2/3
f 193/8/3 186/8/3 169/8/3
f 194/8/3 188/8/3 187/8/3
f 194/2/3 187/2/3 193/2/3
f 194/8/3 189/8/3 188/8/3
f 195/8/3 189/8/3 194/8/3
f 196/8/3 189/8/3 195/8/3
f 197/10/3 190/10/3 189/10/3
f 197/8/3 189/8/3 196/8/3
f 198/8/3 191/8/3 190/8/3
f 198/10/3 190/10/3 197/10/3
f 199/9/3 192/9/3 191/9/3
f 199/8/3 191/8/3 198/8/3
f 200/9/3 192/9/3 199/9/3
f 201/2/3 196/2/3 195/2/3
f 201/8/3 194/8/3 193/8/3
f 201/8/3 195/8/3 194/8/3
f 202/8/3 197/8/3 196/8/3
f 202/2/3 196/2/3 201/2/3
f 202/8/3 198/8/3 197/8/3
f 202/8/3 199/8/3 198/8/3
f 202/8/3 200/8/3 199/8/3
f 203/8/3 200/8/3 202/8/3
f 204/8/3 200/8/3 203/8/3
f 205/8/3 200/8/3 204/8/3
f 206/8/3 193/8/3 169/8/3
f 206/8/3 201/8/3 193/8/3
f 206/8/3 202/8/3 201/8/3
f 207/10/3 203/10/3 202/10/3
f 207/8/3 202/8/3 206/8/3
f 208/8/3 204/8/3 203/8/3
f 208/10/3 203/10/3 207/10/3
f 209/7/3 205/7/3 204/7/3
f 209/8/3 204/8/3 208/8/3
f 210/8/3 200/8/3 205/8/3
f 210/7/3 205/7/3 209/7/3
f 211/8/3 200/8/3 210/8/3
f 212/9/3 209/9/3 208/9/3
f 212/9/3 208/9/3 207/9/3
f 212/9/3 211/9/3 210/9/3
f 212/9/3 210/9/3 209/9/3
f 212/9/3 207/9/3 206/9/3
f 213/9/3 211/9/3 212/9/3
f 219/9/3 215/9/3 214/9/3
f 220/8/3 216/8/3 215/8/3
f 220/9/3 215/9/3 219/9/3
f 221/9/3 217/9/3 216/9/3
f 221/8/3 216/8/3 220/8/3
f 222/8/3 218/8/3 217/8/3
f 222/9/3 217/9/3 221/9/3
f 223/8/3 221/8/3 220/8/3
f 223/8/3 220/8/3 219/8/3
f 223/8/3 222/8/3 221/8/3
f 224/8/3 218/8/3 222/8/3
f 224/8/3 222/8/3 223/8/3
f 225/9/3 224/9/3 223/9/3
f 226/9/3 224/9/3 225/9/3
f 227/8/4 228/8/4 231/8/4
f 231/8/4 228/8/4 232/8/4
f 228/7/4 229/7/4 233/7/4
f 232/8/4 228/8/4 233/8/4
f 229/8/4 230/8/4 234/8/4
f 233/7/4 229/7/4 234/7/4
f 231/7/4 232/7/4 235/7/4
f 227/8/4 231/8/4 235/8/4
f 232/8/4 233/8/4 236/8/4
f 235/7/4 232/7/4 236/7/4
f 233/8/4 234/8/4 236/8/4
f 227/8/4 235/8/4 237/8/4
f 235/8/4 236/8/4 237/8/4
f 236/8/4 234/8/4 238/8/4
f 237/8/4 236/8/4 238/8/4
f 234/8/4 230/8/4 238/8/4
f 237/9/4 238/9/4 239/9/4
f 239/9/4 238/9/4 240/9/4
f 241/12/4 242/12/4 250/12/4
f 242/11/4 243/11/4 251/11/4
f 250/12/4 242/12/4 251/12/4
f 243/8/4 244/8/4 252/8/4
f 251/11/4 243/11/4 252/11/4
f 252/8/4 244/8/4 253/8/4
f 244/3/4 245/3/4 254/3/4
f 253/8/4 244/8/4 254/8/4
f 245/6/4 246/6/4 255/6/4
f 254/3/4 245/3/4 255/3/4
f 246/9/4 247/9/4 256/9/4
f 255/6/4 246/6/4 256/6/4
f 247/8/4 248/8/4 257/8/4
f 256/9/4 247/9/4 257/9/4
f 248/1/4 249/1/4 258/1/4
f 257/8/4 248/8/4 258/8/4
f 258/1/4 249/1/4 259/1/4
f 250/11/4 251/11/4 260/11/4
f 251/12/4 252/12/4 261/12/4
f 260/11/4 251/11/4 261/11/4
f 252/5/4 253/5/4 262/5/4
f 261/12/4 252/12/4 262/12/4
f 253/6/4 254/6/4 263/6/4
f 262/5/4 253/5/4 263/5/4
f 254/8/4 255/8/4 264/8/4
f 263/6/4 254/6/4 264/6/4
f 255/9/4 256/9/4 265/9/4
f 264/8/4 255/8/4 265/8/4
f 256/8/4 257/8/4 266/8/4
f 265/9/4 256/9/4 266/9/4
f 257/8/4 258/8/4 266/8/4
f 266/8/4 258/8/4 267/8/4
f 260/12/4 261/12/4 268/12/4
f 261/11/4 262/11/4 269/11/4
f 268/12/4 261/12/4 269/12/4
f 262/8/4 263/8/4 270/8/4
f 269/11/4 262/11/4 270/11/4
f 263/3/4 264/3/4 271/3/4
f 270/8/4 263/8/4 271/8/4
f 264/8/4 265/8/4 272/8/4
f 271/3/4 264/3/4 272/3/4
f 265/8/4 266/8/4 272/8/4
f 272/8/4 266/8/4 273/8/4
f 266/6/4 267/6/4 274/6/4
f 273/8/4 266/8/4 274/8/4
f 267/8/4 258/8/4 275/8/4
f 274/6/4 267/6/4 275/6/4
f 258/9/4 259/9/4 276/9/4
f 275/8/4 258/8/4 276/8/4
f 276/9/4 259/9/4 277/9/4
f 268/11/4 269/11/4 278/11/4
f 269/12/4 270/12/4 279/12/4
f 278/11/4 269/11/4 279/11/4
f 270/5/4 271/5/4 280/5/4
f 279/12/4 270/12/4 280/12/4
f 271/8/4 272/8/4 281/8/4
f 280/5/4 271/5/4 281/5/4
f 272/6/4 273/6/4 282/6/4
f 281/8/4 272/8/4 282/8/4
f 273/8/4 274/8/4 283/8/4
f 282/6/4 273/6/4 283/6/4
f 274/8/4 275/8/4 283/8/4
f 276/8/4 277/8/4 283/8/4
f 275/8/4 276/8/4 283/8/4
f 283/8/4 277/8/4 284/8/4
f 284/8/4 277/8/4 285/8/4
f 285/8/4 277/8/4 286/8/4
f 286/8/4 277/8/4 287/8/4
f 278/12/4 279/12/4 288/12/4
f 279/11/4 280/11/4 289/11/4
f 288/12/4 279/12/4 289/12/4
f 280/8/4 281/8/4 290/8/4
f 289/11/4 280/11/4 290/11/4
f 281/9/4 282/9/4 291/9/4
f 290/8/4 281/8/4 291/8/4
f 282/3/4 283/3/4 292/3/4
f 291/9/4 282/9/4 292/9/4
f 283/8/4 284/8/4 293/8/4
f 292/3/4 283/3/4 293/3/4
f 284/6/4 285/6/4 294/6/4
f 293/8/4 284/8/4 294/8/4
f 285/8/4 286/8/4 295/8/4
f 294/6/4 285/6/4 295/6/4
f 286/3/4 287/3/4 296/3/4
f 295/8/4 286/8/4 296/8/4
f 296/3/4 287/3/4 297/3/4
f 289/11/4 290/11/4 298/11/4
f 288/11/4 289/11/4 298/11/4
f 296/9/4 297/9/4 299/9/4
f 298/11/4 290/11/4 299/11/4
f 290/9/4 291/9/4 299/9/4
f 295/9/4 296/9/4 299/9/4
f 294/9/4 295/9/4 299/9/4
f 293/9/4 294/9/4 299/9/4
f 292/9/4 293/9/4 299/9/4
f 291/9/4 292/9/4 299/9/4
f 299/9/4 297/9/4 300/9/4
f 304/8/5 302/8/5 301/8/5
f 305/8/5 302/8/5 304/8/5
f 306/7/5 305/7/5 304/7/5
f 307/8/5 302/8/5 305/8/5
f 307/7/5 305/7/5 306/7/5
f 308/8/5 307/8/5 306/8/5
f 309/8/5 302/8/5 307/8/5
f 309/8/5 307/8/5 308/8/5
f 310/10/5 309/10/5 308/10/5
f 311/8/5 302/8/5 309/8/5
f 311/10/5 309/10/5 310/10/5
f 312/8/5 311/8/5 310/8/5
f 313/9/5 303/9/5 302/9/5
f 313/8/5 311/8/5 312/8/5
f 313/8/5 302/8/5 311/8/5
f 314/9/5 303/9/5 313/9/5
f 319/9/5 316/9/5 315/9/5
f 320/8/5 317/8/5 316/8/5
f 320/9/5 316/9/5 319/9/5
f 321/8/5 320/8/5 319/8/5
f 322/8/5 317/8/5 320/8/5
f 322/8/5 320/8/5 321/8/5
f 323/10/5 322/10/5 321/10/5
f 324/8/5 317/8/5 322/8/5
f 324/10/5 322/10/5 323/10/5
f 325/8/5 324/8/5 323/8/5
f 326/8/5 317/8/5 324/8/5
f 326/8/5 324/8/5 325/8/5
f 327/8/5 317/8/5 326/8/5
f 328/8/5 317/8/5 327/8/5
f 329/8/5 317/8/5 328/8/5
f 330/9/5 318/9/5 317/9/5
f 330/8/5 317/8/5 329/8/5
f 331/9/5 318/9/5 330/9/5
f 332/12/5 326/12/5 325/12/5
f 333/11/5 327/11/5 326/11/5
f 333/12/5 326/12/5 332/12/5
f 334/12/5 328/12/5 327/12/5
f 334/11/5 327/11/5 333/11/5
f 335/11/5 329/11/5 328/11/5
f 335/12/5 328/12/5 334/12/5
f 336/12/5 330/12/5 329/12/5
f 336/11/5 329/11/5 335/11/5
f 337/11/5 331/11/5 330/11/5
f 337/12/5 330/12/5 336/12/5
f 338/11/5 331/11/5 337/11/5
f 339/7/6 340/7/6 345/7/6
f 340/8/6 341/8/6 346/8/6
f 345/7/6 340/7/6 346/7/6
f 342/8/6 343/8/6 347/8/6
f 343/9/6 344/9/6 348/9/6
f 347/8/6 343/8/6 348/8/6
f 345/8/6 346/8/6 349/8/6
f 346/8/6 341/8/6 350/8/6
f 349/8/6 346/8/6 350/8/6
f 341/9/6 342/9/6 351/9/6
f 350/8/6 341/8/6 351/8/6
f 342/8/6 347/8/6 352/8/6
f 351/9/6 342/9/6 352/9/6
f 347/10/6 348/10/6 353/10/6
f 352/8/6 347/8/6 353/8/6
f 348/9/6 344/9/6 354/9/6
f 353/10/6 348/10/6 354/10/6
f 349/7/6 350/7/6 355/7/6
f 350/8/6 351/8/6 356/8/6
f 355/7/6 350/7/6 356/7/6
f 351/2/6 352/2/6 357/2/6
f 356/8/6 351/8/6 357/8/6
f 352/8/6 353/8/6 358/8/6
f 357/2/6 352/2/6 358/2/6
f 353/8/6 354/8/6 358/8/6
f 358/8/6 354/8/6 359/8/6
f 354/9/6 344/9/6 360/9/6
f 359/8/6 354/8/6 360/8/6
f 358/8/6 359/8/6 361/8/6
f 356/8/6 357/8/6 361/8/6
f 355/8/6 356/8/6 361/8/6
f 357/8/6 358/8/6 361/8/6
f 361/8/6 359/8/6 362/8/6
f 359/10/6 360/10/6 363/10/6
f 362/8/6 359/8/6 363/8/6
f 360/9/6 344/9/6 364/9/6
f 363/10/6 360/10/6 364/10/6
f 361/9/6 362/9/6 365/9/6
f 362/8/6 363/8/6 366/8/6
f 365/9/6 362/9/6 366/9/6
f 363/8/6 364/8/6 366/8/6
f 365/8/6 366/8/6 367/8/6
f 364/9/6 344/9/6 368/9/6
f 367/8/6 366/8/6 368/8/6
f 366/8/6 364/8/6 368/8/6
f 368/9/6 344/9/6 369/9/6
f 370/8/6 371/8/6 373/8/6
f 373/8/6 371/8/6 374/8/6
f 374/8/6 371/8/6 375/8/6
f 375/8/6 371/8/6 376/8/6
f 371/9/6 372/9/6 377/9/6
f 376/8/6 371/8/6 377/8/6
f 370/8/6 373/8/6 378/8/6
f 373/6/6 374/6/6 379/6/6
f 378/8/6 373/8/6 379/8/6
f 374/8/6 375/8/6 380/8/6
f 379/6/6 374/6/6 380/6/6
f 375/1/6 376/1/6 381/1/6
f 380/8/6 375/8/6 381/8/6
f 376/9/6 377/9/6 382/9/6
f 381/1/6 376/1/6 382/1/6
f 377/9/6 372/9/6 383/9/6
f 382/9/6 377/9/6 383/9/6
f 378/1/6 379/1/6 384/1/6
f 379/8/6 380/8/6 385/8/6
f 384/1/6 379/1/6 385/1/6
f 381/8/6 382/8/6 385/8/6
f 382/8/6 383/8/6 385/8/6
f 380/8/6 381/8/6 385/8/6
f 385/8/6 383/8/6 386/8/6
f 386/8/6 383/8/6 387/8/6
f 387/8/6 383/8/6 388/8/6
f 384/8/6 385/8/6 389/8/6
f 385/8/6 386/8/6 389/8/6
f 389/8/6 386/8/6 390/8/6
f 386/4/6 387/4/6 391/4/6
f 390/8/6 386/8/6 391/8/6
f 387/1/6 388/1/6 392/1/6
f 391/4/6 387/4/6 392/4/6
f 388/8/6 383/8/6 393/8/6
f 392/1/6 388/1/6 393/1/6
f 383/9/6 372/9/6 394/9/6
f 393/8/6 383/8/6 394/8/6
f 389/1/6 390/1/6 395/1/6
f 391/9/6 392/9/6 396/9/6
f 395/1/6 390/1/6 396/1/6
f 390/9/6 391/9/6 396/9/6
f 392/8/6 393/8/6 397/8/6
f 396/9/6 392/9/6 397/9/6
f 393/3/6 394/3/6 398/3/6
f 397/8/6 393/8/6 398/8/6
f 394/9/6 372/9/6 399/9/6
f 398/3/6 394/3/6 399/3/6
f 399/9/6 372/9/6 400/9/6
