# MagicaVoxel @ Ephtracy

# group
o 

# material
mtllib untitled-0.mtl
usemtl palette

# normals
vn -1 0 0
vn 1 0 0
vn 0 0 1
vn 0 0 -1
vn 0 -1 0
vn 0 1 0

# texcoords
vt 0.607422 0.5
vt 0.630859 0.5
vt 0.744141 0.5
vt 0.748047 0.5
vt 0.771484 0.5
vt 0.794922 0.5
vt 0.896484 0.5
vt 0.900391 0.5
vt 0.904297 0.5
vt 0.908203 0.5
vt 0.912109 0.5

# verts
v 3.9 0 -2.8
v 3.9 0 -3.8
v 3.9 0 -4.2
v 3.9 0 -5
v 3.9 0 -5.1
v 3.9 0.1 -5
v 3.9 0.1 -5.1
v 3.9 0.2 -5
v 3.9 0.2 -5.1
v 3.9 0.3 -5
v 3.9 0.3 -5.1
v 3.9 0.4 -2.8
v 3.9 0.4 -2.9
v 3.9 0.4 -5
v 3.9 0.4 -5.1
v 3.9 0.5 -2.8
v 3.9 0.5 -2.9
v 3.9 0.5 -5
v 3.9 0.5 -5.1
v 3.9 0.6 -2.8
v 3.9 0.6 -2.9
v 3.9 0.6 -5
v 3.9 0.6 -5.1
v 3.9 0.7 -2.8
v 3.9 0.7 -2.9
v 3.9 0.7 -5
v 3.9 0.7 -5.1
v 3.9 0.8 -3.1
v 3.9 0.8 -3.2
v 3.9 0.8 -3.3
v 3.9 0.8 -3.5
v 3.9 0.8 -4.7
v 3.9 0.8 -4.8
v 3.9 0.8 -5
v 3.9 0.8 -5.1
v 3.9 0.9 -2.8
v 3.9 0.9 -3.1
v 3.9 0.9 -3.2
v 3.9 0.9 -3.3
v 3.9 0.9 -3.5
v 3.9 0.9 -3.8
v 3.9 0.9 -4.2
v 3.9 0.9 -4.7
v 3.9 0.9 -4.8
v 3.9 0.9 -5
v 3.9 0.9 -5.1
v 4.5 0 -2.8
v 4.5 0 -3.2
v 4.5 0 -3.3
v 4.5 0 -3.5
v 4.5 0 -3.8
v 4.5 0 -4.2
v 4.5 0 -4.8
v 4.5 0 -4.9
v 4.5 0 -5
v 4.5 0 -5.1
v 4.5 0.1 -2.8
v 4.5 0.1 -2.9
v 4.5 0.1 -3.2
v 4.5 0.1 -3.3
v 4.5 0.1 -3.4
v 4.5 0.1 -3.5
v 4.5 0.1 -4.2
v 4.5 0.1 -4.3
v 4.5 0.1 -4.4
v 4.5 0.1 -4.5
v 4.5 0.1 -4.8
v 4.5 0.1 -5
v 4.5 0.1 -5.1
v 4.5 0.2 -2.8
v 4.5 0.2 -2.9
v 4.5 0.2 -3
v 4.5 0.2 -3.1
v 4.5 0.2 -3.3
v 4.5 0.2 -3.4
v 4.5 0.2 -3.5
v 4.5 0.2 -3.8
v 4.5 0.2 -4.3
v 4.5 0.2 -4.4
v 4.5 0.2 -4.8
v 4.5 0.2 -4.9
v 4.5 0.2 -5
v 4.5 0.2 -5.1
v 4.5 0.3 -2.9
v 4.5 0.3 -3
v 4.5 0.3 -3.1
v 4.5 0.3 -3.4
v 4.5 0.3 -3.5
v 4.5 0.3 -4.2
v 4.5 0.3 -4.3
v 4.5 0.3 -4.4
v 4.5 0.3 -4.5
v 4.5 0.3 -4.8
v 4.5 0.3 -5
v 4.5 0.3 -5.1
v 4.5 0.4 -2.8
v 4.5 0.4 -2.9
v 4.5 0.4 -3.4
v 4.5 0.4 -3.5
v 4.5 0.4 -3.8
v 4.5 0.4 -4.3
v 4.5 0.4 -4.4
v 4.5 0.4 -4.5
v 4.5 0.4 -4.8
v 4.5 0.4 -4.9
v 4.5 0.4 -5
v 4.5 0.4 -5.1
v 4.5 0.5 -2.8
v 4.5 0.5 -2.9
v 4.5 0.5 -3
v 4.5 0.5 -3.3
v 4.5 0.5 -3.4
v 4.5 0.5 -3.5
v 4.5 0.5 -4.3
v 4.5 0.5 -4.4
v 4.5 0.5 -4.5
v 4.5 0.5 -4.6
v 4.5 0.5 -4.7
v 4.5 0.5 -4.8
v 4.5 0.5 -4.9
v 4.5 0.5 -5
v 4.5 0.5 -5.1
v 4.5 0.6 -2.8
v 4.5 0.6 -2.9
v 4.5 0.6 -3
v 4.5 0.6 -3.1
v 4.5 0.6 -3.2
v 4.5 0.6 -3.3
v 4.5 0.6 -3.4
v 4.5 0.6 -3.5
v 4.5 0.6 -3.6
v 4.5 0.6 -3.7
v 4.5 0.6 -4.3
v 4.5 0.6 -4.4
v 4.5 0.6 -4.5
v 4.5 0.6 -4.6
v 4.5 0.6 -4.7
v 4.5 0.6 -4.8
v 4.5 0.6 -4.9
v 4.5 0.6 -5.1
v 4.5 0.7 -2.8
v 4.5 0.7 -3
v 4.5 0.7 -3.1
v 4.5 0.7 -3.2
v 4.5 0.7 -3.4
v 4.5 0.7 -3.5
v 4.5 0.7 -3.6
v 4.5 0.7 -3.7
v 4.5 0.7 -4.4
v 4.5 0.7 -4.5
v 4.5 0.7 -5
v 4.5 0.7 -5.1
v 4.5 0.8 -2.8
v 4.5 0.8 -3
v 4.5 0.8 -3.3
v 4.5 0.8 -3.5
v 4.5 0.8 -3.6
v 4.5 0.8 -3.8
v 4.5 0.8 -4.2
v 4.5 0.8 -4.3
v 4.5 0.8 -4.4
v 4.5 0.8 -4.5
v 4.5 0.8 -4.6
v 4.5 0.8 -4.8
v 4.5 0.8 -4.9
v 4.5 0.9 -2.8
v 4.5 0.9 -3.1
v 4.5 0.9 -3.3
v 4.5 0.9 -3.8
v 4.5 0.9 -4.2
v 4.5 0.9 -4.3
v 4.5 0.9 -4.5
v 4.5 0.9 -4.6
v 4.5 0.9 -4.8
v 4.5 0.9 -4.9
v 4.5 0.9 -5
v 4.5 0.9 -5.1
v 3.9 0 -2.8
v 3.9 0.4 -2.8
v 3.9 0.5 -2.8
v 3.9 0.6 -2.8
v 3.9 0.7 -2.8
v 3.9 0.9 -2.8
v 4 0 -2.8
v 4 0.1 -2.8
v 4 0.3 -2.8
v 4 0.4 -2.8
v 4 0.6 -2.8
v 4 0.7 -2.8
v 4 0.8 -2.8
v 4 0.9 -2.8
v 4.1 0 -2.8
v 4.1 0.1 -2.8
v 4.1 0.2 -2.8
v 4.1 0.3 -2.8
v 4.1 0.5 -2.8
v 4.1 0.6 -2.8
v 4.1 0.7 -2.8
v 4.1 0.8 -2.8
v 4.1 0.9 -2.8
v 4.2 0.2 -2.8
v 4.2 0.3 -2.8
v 4.2 0.4 -2.8
v 4.2 0.5 -2.8
v 4.2 0.6 -2.8
v 4.2 0.7 -2.8
v 4.3 0 -2.8
v 4.3 0.1 -2.8
v 4.3 0.3 -2.8
v 4.3 0.4 -2.8
v 4.3 0.5 -2.8
v 4.3 0.7 -2.8
v 4.3 0.8 -2.8
v 4.3 0.9 -2.8
v 4.4 0 -2.8
v 4.4 0.1 -2.8
v 4.4 0.2 -2.8
v 4.4 0.3 -2.8
v 4.4 0.4 -2.8
v 4.4 0.5 -2.8
v 4.4 0.6 -2.8
v 4.4 0.7 -2.8
v 4.4 0.8 -2.8
v 4.4 0.9 -2.8
v 4.5 0 -2.8
v 4.5 0.1 -2.8
v 4.5 0.2 -2.8
v 4.5 0.4 -2.8
v 4.5 0.5 -2.8
v 4.5 0.6 -2.8
v 4.5 0.7 -2.8
v 4.5 0.8 -2.8
v 4.5 0.9 -2.8
v 3.9 0 -4.2
v 3.9 0.9 -4.2
v 4.4 0.1 -4.2
v 4.4 0.3 -4.2
v 4.4 0.8 -4.2
v 4.4 0.9 -4.2
v 4.5 0 -4.2
v 4.5 0.1 -4.2
v 4.5 0.3 -4.2
v 4.5 0.8 -4.2
v 4.5 0.9 -4.2
v 3.9 0 -3.8
v 3.9 0.9 -3.8
v 4.4 0.2 -3.8
v 4.4 0.4 -3.8
v 4.4 0.8 -3.8
v 4.4 0.9 -3.8
v 4.5 0 -3.8
v 4.5 0.2 -3.8
v 4.5 0.4 -3.8
v 4.5 0.8 -3.8
v 4.5 0.9 -3.8
v 3.9 0 -5.1
v 3.9 0.1 -5.1
v 3.9 0.2 -5.1
v 3.9 0.3 -5.1
v 3.9 0.4 -5.1
v 3.9 0.5 -5.1
v 3.9 0.6 -5.1
v 3.9 0.7 -5.1
v 3.9 0.8 -5.1
v 3.9 0.9 -5.1
v 4 0 -5.1
v 4 0.1 -5.1
v 4 0.2 -5.1
v 4 0.3 -5.1
v 4 0.4 -5.1
v 4 0.5 -5.1
v 4 0.6 -5.1
v 4 0.7 -5.1
v 4 0.8 -5.1
v 4 0.9 -5.1
v 4.1 0 -5.1
v 4.1 0.1 -5.1
v 4.1 0.2 -5.1
v 4.1 0.3 -5.1
v 4.1 0.4 -5.1
v 4.1 0.5 -5.1
v 4.1 0.7 -5.1
v 4.1 0.8 -5.1
v 4.1 0.9 -5.1
v 4.2 0 -5.1
v 4.2 0.1 -5.1
v 4.2 0.2 -5.1
v 4.2 0.3 -5.1
v 4.2 0.4 -5.1
v 4.2 0.5 -5.1
v 4.2 0.6 -5.1
v 4.2 0.7 -5.1
v 4.2 0.8 -5.1
v 4.2 0.9 -5.1
v 4.3 0 -5.1
v 4.3 0.1 -5.1
v 4.3 0.2 -5.1
v 4.3 0.3 -5.1
v 4.3 0.4 -5.1
v 4.3 0.5 -5.1
v 4.3 0.6 -5.1
v 4.3 0.7 -5.1
v 4.3 0.8 -5.1
v 4.3 0.9 -5.1
v 4.4 0 -5.1
v 4.4 0.1 -5.1
v 4.4 0.2 -5.1
v 4.4 0.3 -5.1
v 4.4 0.4 -5.1
v 4.4 0.5 -5.1
v 4.4 0.6 -5.1
v 4.4 0.8 -5.1
v 4.4 0.9 -5.1
v 4.5 0 -5.1
v 4.5 0.1 -5.1
v 4.5 0.2 -5.1
v 4.5 0.3 -5.1
v 4.5 0.4 -5.1
v 4.5 0.5 -5.1
v 4.5 0.6 -5.1
v 4.5 0.7 -5.1
v 4.5 0.9 -5.1
v 3.9 0 -2.8
v 4 0 -2.8
v 4.1 0 -2.8
v 4.3 0 -2.8
v 4.4 0 -2.8
v 4.5 0 -2.8
v 4 0 -2.9
v 4.1 0 -2.9
v 4.3 0 -2.9
v 4.4 0 -2.9
v 4.4 0 -3.2
v 4.5 0 -3.2
v 4.4 0 -3.3
v 4.5 0 -3.3
v 4.4 0 -3.5
v 4.5 0 -3.5
v 3.9 0 -3.8
v 4.5 0 -3.8
v 3.9 0 -4.2
v 4.5 0 -4.2
v 4.4 0 -4.8
v 4.5 0 -4.8
v 4.4 0 -4.9
v 4.5 0 -4.9
v 3.9 0 -5
v 4 0 -5
v 4.1 0 -5
v 4.2 0 -5
v 4.3 0 -5
v 4.4 0 -5
v 4.5 0 -5
v 3.9 0 -5.1
v 4 0 -5.1
v 4.1 0 -5.1
v 4.2 0 -5.1
v 4.3 0 -5.1
v 4.4 0 -5.1
v 4.5 0 -5.1
v 3.9 0.9 -2.8
v 4 0.9 -2.8
v 4.1 0.9 -2.8
v 4.3 0.9 -2.8
v 4.4 0.9 -2.8
v 4.5 0.9 -2.8
v 4 0.9 -2.9
v 4.1 0.9 -2.9
v 4.3 0.9 -2.9
v 4.4 0.9 -2.9
v 4.3 0.9 -3
v 4.4 0.9 -3
v 3.9 0.9 -3.1
v 4 0.9 -3.1
v 4.4 0.9 -3.1
v 4.5 0.9 -3.1
v 3.9 0.9 -3.2
v 4 0.9 -3.2
v 3.9 0.9 -3.3
v 4 0.9 -3.3
v 4.4 0.9 -3.3
v 4.5 0.9 -3.3
v 3.9 0.9 -3.5
v 4 0.9 -3.5
v 3.9 0.9 -3.8
v 4.4 0.9 -3.8
v 4.5 0.9 -3.8
v 3.9 0.9 -4.2
v 4.4 0.9 -4.2
v 4.5 0.9 -4.2
v 4.4 0.9 -4.3
v 4.5 0.9 -4.3
v 4.4 0.9 -4.5
v 4.5 0.9 -4.5
v 4.1 0.9 -4.6
v 4.2 0.9 -4.6
v 4.3 0.9 -4.6
v 4.4 0.9 -4.6
v 4.5 0.9 -4.6
v 3.9 0.9 -4.7
v 4 0.9 -4.7
v 4.1 0.9 -4.7
v 4.2 0.9 -4.7
v 4.3 0.9 -4.7
v 4.4 0.9 -4.7
v 3.9 0.9 -4.8
v 4 0.9 -4.8
v 4.1 0.9 -4.8
v 4.2 0.9 -4.8
v 4.3 0.9 -4.8
v 4.4 0.9 -4.8
v 4.5 0.9 -4.8
v 4.1 0.9 -4.9
v 4.2 0.9 -4.9
v 4.4 0.9 -4.9
v 4.5 0.9 -4.9
v 3.9 0.9 -5
v 4 0.9 -5
v 4.1 0.9 -5
v 4.2 0.9 -5
v 4.3 0.9 -5
v 4.4 0.9 -5
v 4.5 0.9 -5
v 3.9 0.9 -5.1
v 4 0.9 -5.1
v 4.1 0.9 -5.1
v 4.2 0.9 -5.1
v 4.3 0.9 -5.1
v 4.4 0.9 -5.1
v 4.5 0.9 -5.1

# faces
f 6/7/1 4/7/1 3/7/1
f 6/11/1 5/11/1 4/11/1
f 7/11/1 5/11/1 6/11/1
f 8/7/1 6/7/1 3/7/1
f 8/10/1 7/10/1 6/10/1
f 9/10/1 7/10/1 8/10/1
f 10/7/1 8/7/1 3/7/1
f 10/7/1 9/7/1 8/7/1
f 11/7/1 9/7/1 10/7/1
f 12/7/1 2/7/1 1/7/1
f 13/7/1 2/7/1 12/7/1
f 14/7/1 10/7/1 3/7/1
f 14/8/1 11/8/1 10/8/1
f 15/8/1 11/8/1 14/8/1
f 16/9/1 13/9/1 12/9/1
f 17/7/1 2/7/1 13/7/1
f 17/9/1 13/9/1 16/9/1
f 18/7/1 14/7/1 3/7/1
f 18/2/1 15/2/1 14/2/1
f 19/2/1 15/2/1 18/2/1
f 20/7/1 17/7/1 16/7/1
f 21/7/1 2/7/1 17/7/1
f 21/7/1 17/7/1 20/7/1
f 22/7/1 18/7/1 3/7/1
f 22/7/1 19/7/1 18/7/1
f 23/7/1 19/7/1 22/7/1
f 24/5/1 21/5/1 20/5/1
f 25/7/1 2/7/1 21/7/1
f 25/5/1 21/5/1 24/5/1
f 26/7/1 22/7/1 3/7/1
f 26/4/1 23/4/1 22/4/1
f 27/4/1 23/4/1 26/4/1
f 28/7/1 2/7/1 25/7/1
f 28/7/1 25/7/1 24/7/1
f 29/7/1 2/7/1 28/7/1
f 30/7/1 2/7/1 29/7/1
f 31/7/1 2/7/1 30/7/1
f 32/7/1 27/7/1 26/7/1
f 32/7/1 26/7/1 3/7/1
f 33/7/1 27/7/1 32/7/1
f 34/7/1 27/7/1 33/7/1
f 35/7/1 27/7/1 34/7/1
f 36/7/1 28/7/1 24/7/1
f 37/9/1 29/9/1 28/9/1
f 37/7/1 28/7/1 36/7/1
f 38/7/1 30/7/1 29/7/1
f 38/9/1 29/9/1 37/9/1
f 39/9/1 31/9/1 30/9/1
f 39/7/1 30/7/1 38/7/1
f 40/7/1 2/7/1 31/7/1
f 40/9/1 31/9/1 39/9/1
f 41/7/1 2/7/1 40/7/1
f 42/7/1 32/7/1 3/7/1
f 43/8/1 33/8/1 32/8/1
f 43/7/1 32/7/1 42/7/1
f 44/7/1 34/7/1 33/7/1
f 44/8/1 33/8/1 43/8/1
f 45/2/1 35/2/1 34/2/1
f 45/7/1 34/7/1 44/7/1
f 46/2/1 35/2/1 45/2/1
f 47/7/2 48/7/2 57/7/2
f 57/7/2 48/7/2 58/7/2
f 48/8/2 49/8/2 59/8/2
f 58/7/2 48/7/2 59/7/2
f 49/5/2 50/5/2 60/5/2
f 59/8/2 49/8/2 60/8/2
f 60/5/2 50/5/2 61/5/2
f 50/7/2 51/7/2 62/7/2
f 61/5/2 50/5/2 62/5/2
f 52/7/2 53/7/2 63/7/2
f 63/7/2 53/7/2 64/7/2
f 64/7/2 53/7/2 65/7/2
f 65/7/2 53/7/2 66/7/2
f 53/5/2 54/5/2 67/5/2
f 66/7/2 53/7/2 67/7/2
f 55/10/2 56/10/2 68/10/2
f 54/7/2 55/7/2 68/7/2
f 68/10/2 56/10/2 69/10/2
f 57/9/2 58/9/2 70/9/2
f 58/7/2 59/7/2 71/7/2
f 70/9/2 58/9/2 71/9/2
f 59/7/2 60/7/2 71/7/2
f 71/7/2 60/7/2 72/7/2
f 72/7/2 60/7/2 73/7/2
f 60/6/2 61/6/2 74/6/2
f 73/7/2 60/7/2 74/7/2
f 61/8/2 62/8/2 75/8/2
f 74/6/2 61/6/2 75/6/2
f 62/7/2 51/7/2 76/7/2
f 75/8/2 62/8/2 76/8/2
f 76/7/2 51/7/2 77/7/2
f 63/5/2 64/5/2 78/5/2
f 64/6/2 65/6/2 78/6/2
f 65/7/2 66/7/2 79/7/2
f 78/6/2 65/6/2 79/6/2
f 67/5/2 54/5/2 80/5/2
f 66/6/2 67/6/2 80/6/2
f 54/7/2 68/7/2 81/7/2
f 80/5/2 54/5/2 81/5/2
f 68/11/2 69/11/2 82/11/2
f 81/7/2 68/7/2 82/7/2
f 82/11/2 69/11/2 83/11/2
f 70/7/2 71/7/2 84/7/2
f 71/5/2 72/5/2 84/5/2
f 72/6/2 73/6/2 85/6/2
f 84/5/2 72/5/2 85/5/2
f 74/7/2 75/7/2 86/7/2
f 85/6/2 73/6/2 86/6/2
f 73/7/2 74/7/2 86/7/2
f 75/7/2 76/7/2 86/7/2
f 86/7/2 76/7/2 87/7/2
f 76/8/2 77/8/2 88/8/2
f 87/7/2 76/7/2 88/7/2
f 63/5/2 78/5/2 89/5/2
f 78/7/2 79/7/2 90/7/2
f 89/5/2 78/5/2 90/5/2
f 79/7/2 66/7/2 91/7/2
f 90/7/2 79/7/2 91/7/2
f 66/6/2 80/6/2 92/6/2
f 91/7/2 66/7/2 92/7/2
f 80/7/2 81/7/2 93/7/2
f 92/6/2 80/6/2 93/6/2
f 81/7/2 82/7/2 93/7/2
f 82/8/2 83/8/2 94/8/2
f 93/7/2 82/7/2 94/7/2
f 94/8/2 83/8/2 95/8/2
f 70/7/2 84/7/2 96/7/2
f 84/7/2 85/7/2 96/7/2
f 86/7/2 87/7/2 96/7/2
f 85/7/2 86/7/2 96/7/2
f 96/7/2 87/7/2 97/7/2
f 87/5/2 88/5/2 98/5/2
f 97/7/2 87/7/2 98/7/2
f 88/8/2 77/8/2 99/8/2
f 98/5/2 88/5/2 99/5/2
f 99/8/2 77/8/2 100/8/2
f 89/7/2 90/7/2 101/7/2
f 90/7/2 91/7/2 101/7/2
f 91/5/2 92/5/2 102/5/2
f 101/7/2 91/7/2 102/7/2
f 94/7/2 95/7/2 103/7/2
f 102/5/2 92/5/2 103/5/2
f 93/7/2 94/7/2 103/7/2
f 92/7/2 93/7/2 103/7/2
f 103/7/2 95/7/2 104/7/2
f 104/7/2 95/7/2 105/7/2
f 105/7/2 95/7/2 106/7/2
f 106/7/2 95/7/2 107/7/2
f 96/1/2 97/1/2 108/1/2
f 99/7/2 100/7/2 109/7/2
f 108/1/2 97/1/2 109/1/2
f 97/7/2 98/7/2 109/7/2
f 98/7/2 99/7/2 109/7/2
f 109/7/2 100/7/2 110/7/2
f 110/7/2 100/7/2 111/7/2
f 111/7/2 100/7/2 112/7/2
f 112/7/2 100/7/2 113/7/2
f 101/5/2 102/5/2 114/5/2
f 89/7/2 101/7/2 114/7/2
f 102/7/2 103/7/2 115/7/2
f 114/5/2 102/5/2 115/5/2
f 103/7/2 104/7/2 115/7/2
f 115/7/2 104/7/2 116/7/2
f 116/7/2 104/7/2 117/7/2
f 117/7/2 104/7/2 118/7/2
f 104/5/2 105/5/2 119/5/2
f 118/7/2 104/7/2 119/7/2
f 105/7/2 106/7/2 120/7/2
f 119/5/2 105/5/2 120/5/2
f 106/8/2 107/8/2 121/8/2
f 120/7/2 106/7/2 121/7/2
f 121/8/2 107/8/2 122/8/2
f 108/6/2 109/6/2 123/6/2
f 109/8/2 110/8/2 124/8/2
f 123/6/2 109/6/2 124/6/2
f 110/7/2 111/7/2 125/7/2
f 124/8/2 110/8/2 125/8/2
f 125/7/2 111/7/2 126/7/2
f 126/7/2 111/7/2 127/7/2
f 111/6/2 112/6/2 128/6/2
f 127/7/2 111/7/2 128/7/2
f 112/5/2 113/5/2 129/5/2
f 128/6/2 112/6/2 129/6/2
f 113/7/2 100/7/2 130/7/2
f 129/5/2 113/5/2 130/5/2
f 130/7/2 100/7/2 131/7/2
f 131/7/2 100/7/2 132/7/2
f 89/7/2 114/7/2 133/7/2
f 114/8/2 115/8/2 133/8/2
f 115/6/2 116/6/2 134/6/2
f 133/8/2 115/8/2 134/8/2
f 116/7/2 117/7/2 135/7/2
f 134/6/2 116/6/2 135/6/2
f 117/6/2 118/6/2 136/6/2
f 135/7/2 117/7/2 136/7/2
f 118/8/2 119/8/2 137/8/2
f 136/6/2 118/6/2 137/6/2
f 119/5/2 120/5/2 138/5/2
f 137/8/2 119/8/2 138/8/2
f 120/5/2 121/5/2 138/5/2
f 121/5/2 122/5/2 138/5/2
f 138/5/2 122/5/2 139/5/2
f 139/5/2 122/5/2 140/5/2
f 123/5/2 124/5/2 141/5/2
f 124/5/2 125/5/2 141/5/2
f 125/5/2 126/5/2 141/5/2
f 141/5/2 126/5/2 142/5/2
f 126/6/2 127/6/2 143/6/2
f 142/5/2 126/5/2 143/5/2
f 128/7/2 129/7/2 144/7/2
f 143/6/2 127/6/2 144/6/2
f 127/7/2 128/7/2 144/7/2
f 129/6/2 130/6/2 145/6/2
f 144/7/2 129/7/2 145/7/2
f 130/7/2 131/7/2 146/7/2
f 145/6/2 130/6/2 146/6/2
f 131/6/2 132/6/2 147/6/2
f 146/7/2 131/7/2 147/7/2
f 132/7/2 100/7/2 148/7/2
f 147/6/2 132/6/2 148/6/2
f 136/7/2 137/7/2 149/7/2
f 135/7/2 136/7/2 149/7/2
f 134/7/2 135/7/2 149/7/2
f 137/7/2 138/7/2 149/7/2
f 133/7/2 134/7/2 149/7/2
f 149/7/2 138/7/2 150/7/2
f 139/7/2 140/7/2 151/7/2
f 151/7/2 140/7/2 152/7/2
f 141/8/2 142/8/2 153/8/2
f 142/5/2 143/5/2 154/5/2
f 153/8/2 142/8/2 154/8/2
f 145/7/2 146/7/2 155/7/2
f 144/7/2 145/7/2 155/7/2
f 143/7/2 144/7/2 155/7/2
f 146/5/2 147/5/2 156/5/2
f 155/7/2 146/7/2 156/7/2
f 147/7/2 148/7/2 157/7/2
f 156/5/2 147/5/2 157/5/2
f 148/7/2 100/7/2 158/7/2
f 157/7/2 148/7/2 158/7/2
f 89/7/2 133/7/2 159/7/2
f 133/7/2 149/7/2 159/7/2
f 159/7/2 149/7/2 160/7/2
f 149/5/2 150/5/2 161/5/2
f 160/7/2 149/7/2 161/7/2
f 150/7/2 138/7/2 162/7/2
f 161/5/2 150/5/2 162/5/2
f 162/7/2 138/7/2 163/7/2
f 138/5/2 139/5/2 164/5/2
f 163/7/2 138/7/2 164/7/2
f 139/7/2 151/7/2 165/7/2
f 164/5/2 139/5/2 165/5/2
f 153/5/2 154/5/2 166/5/2
f 143/7/2 155/7/2 167/7/2
f 166/5/2 154/5/2 167/5/2
f 154/5/2 143/5/2 167/5/2
f 156/8/2 157/8/2 168/8/2
f 167/7/2 155/7/2 168/7/2
f 155/8/2 156/8/2 168/8/2
f 157/8/2 158/8/2 168/8/2
f 168/8/2 158/8/2 169/8/2
f 159/5/2 160/5/2 170/5/2
f 161/7/2 162/7/2 171/7/2
f 170/5/2 160/5/2 171/5/2
f 160/7/2 161/7/2 171/7/2
f 162/8/2 163/8/2 172/8/2
f 171/7/2 162/7/2 172/7/2
f 163/7/2 164/7/2 173/7/2
f 172/8/2 163/8/2 173/8/2
f 164/2/2 165/2/2 174/2/2
f 173/7/2 164/7/2 174/7/2
f 165/7/2 151/7/2 175/7/2
f 174/2/2 165/2/2 175/2/2
f 151/8/2 152/8/2 176/8/2
f 175/7/2 151/7/2 176/7/2
f 176/8/2 152/8/2 177/8/2
f 184/7/3 179/7/3 178/7/3
f 185/7/3 179/7/3 184/7/3
f 186/7/3 179/7/3 185/7/3
f 187/9/3 180/9/3 179/9/3
f 187/7/3 179/7/3 186/7/3
f 188/7/3 181/7/3 180/7/3
f 188/5/3 182/5/3 181/5/3
f 189/7/3 183/7/3 182/7/3
f 189/5/3 182/5/3 188/5/3
f 190/7/3 183/7/3 189/7/3
f 191/7/3 183/7/3 190/7/3
f 192/1/3 185/1/3 184/1/3
f 193/7/3 186/7/3 185/7/3
f 193/1/3 185/1/3 192/1/3
f 194/7/3 186/7/3 193/7/3
f 195/9/3 187/9/3 186/9/3
f 195/7/3 186/7/3 194/7/3
f 196/7/3 188/7/3 180/7/3
f 196/9/3 187/9/3 195/9/3
f 196/9/3 180/9/3 187/9/3
f 196/7/3 189/7/3 188/7/3
f 196/7/3 190/7/3 189/7/3
f 197/7/3 190/7/3 196/7/3
f 198/7/3 190/7/3 197/7/3
f 199/9/3 191/9/3 190/9/3
f 199/7/3 190/7/3 198/7/3
f 200/9/3 191/9/3 199/9/3
f 201/1/3 195/1/3 194/1/3
f 201/7/3 193/7/3 192/7/3
f 201/7/3 194/7/3 193/7/3
f 202/7/3 196/7/3 195/7/3
f 202/1/3 195/1/3 201/1/3
f 202/7/3 197/7/3 196/7/3
f 203/7/3 197/7/3 202/7/3
f 204/7/3 197/7/3 203/7/3
f 205/1/3 198/1/3 197/1/3
f 205/7/3 197/7/3 204/7/3
f 206/7/3 200/7/3 199/7/3
f 206/1/3 198/1/3 205/1/3
f 206/7/3 199/7/3 198/7/3
f 207/7/3 203/7/3 202/7/3
f 207/7/3 201/7/3 192/7/3
f 207/7/3 202/7/3 201/7/3
f 208/7/3 203/7/3 207/7/3
f 209/7/3 203/7/3 208/7/3
f 210/1/3 204/1/3 203/1/3
f 210/7/3 203/7/3 209/7/3
f 211/7/3 205/7/3 204/7/3
f 211/1/3 204/1/3 210/1/3
f 211/7/3 206/7/3 205/7/3
f 212/7/3 200/7/3 206/7/3
f 212/7/3 206/7/3 211/7/3
f 213/7/3 200/7/3 212/7/3
f 214/7/3 200/7/3 213/7/3
f 215/1/3 208/1/3 207/1/3
f 216/7/3 209/7/3 208/7/3
f 216/1/3 208/1/3 215/1/3
f 217/7/3 209/7/3 216/7/3
f 218/9/3 210/9/3 209/9/3
f 218/7/3 209/7/3 217/7/3
f 219/7/3 211/7/3 210/7/3
f 219/9/3 210/9/3 218/9/3
f 219/7/3 212/7/3 211/7/3
f 220/7/3 212/7/3 219/7/3
f 221/7/3 212/7/3 220/7/3
f 222/9/3 213/9/3 212/9/3
f 222/7/3 212/7/3 221/7/3
f 223/8/3 214/8/3 213/8/3
f 223/9/3 213/9/3 222/9/3
f 224/8/3 214/8/3 223/8/3
f 225/7/3 216/7/3 215/7/3
f 226/9/3 217/9/3 216/9/3
f 226/7/3 216/7/3 225/7/3
f 227/7/3 218/7/3 217/7/3
f 227/9/3 217/9/3 226/9/3
f 227/7/3 219/7/3 218/7/3
f 228/1/3 220/1/3 219/1/3
f 228/7/3 219/7/3 227/7/3
f 229/6/3 221/6/3 220/6/3
f 229/1/3 220/1/3 228/1/3
f 230/5/3 222/5/3 221/5/3
f 230/6/3 221/6/3 229/6/3
f 231/8/3 223/8/3 222/8/3
f 231/5/3 222/5/3 230/5/3
f 232/5/3 224/5/3 223/5/3
f 232/8/3 223/8/3 231/8/3
f 233/5/3 224/5/3 232/5/3
f 236/7/3 235/7/3 234/7/3
f 237/7/3 235/7/3 236/7/3
f 238/7/3 235/7/3 237/7/3
f 239/7/3 235/7/3 238/7/3
f 240/7/3 236/7/3 234/7/3
f 241/5/3 237/5/3 236/5/3
f 241/7/3 236/7/3 240/7/3
f 242/7/3 238/7/3 237/7/3
f 242/5/3 237/5/3 241/5/3
f 243/5/3 239/5/3 238/5/3
f 243/7/3 238/7/3 242/7/3
f 244/5/3 239/5/3 243/5/3
f 245/7/4 246/7/4 247/7/4
f 247/7/4 246/7/4 248/7/4
f 248/7/4 246/7/4 249/7/4
f 249/7/4 246/7/4 250/7/4
f 245/7/4 247/7/4 251/7/4
f 247/8/4 248/8/4 252/8/4
f 251/7/4 247/7/4 252/7/4
f 248/7/4 249/7/4 253/7/4
f 252/8/4 248/8/4 253/8/4
f 249/8/4 250/8/4 254/8/4
f 253/7/4 249/7/4 254/7/4
f 254/8/4 250/8/4 255/8/4
f 256/11/4 257/11/4 266/11/4
f 257/10/4 258/10/4 267/10/4
f 266/11/4 257/11/4 267/11/4
f 258/7/4 259/7/4 268/7/4
f 267/10/4 258/10/4 268/10/4
f 259/8/4 260/8/4 269/8/4
f 268/7/4 259/7/4 269/7/4
f 260/2/4 261/2/4 270/2/4
f 269/8/4 260/8/4 270/8/4
f 261/7/4 262/7/4 271/7/4
f 270/2/4 261/2/4 271/2/4
f 262/4/4 263/4/4 272/4/4
f 271/7/4 262/7/4 272/7/4
f 263/7/4 264/7/4 273/7/4
f 272/4/4 263/4/4 273/4/4
f 264/2/4 265/2/4 274/2/4
f 273/7/4 264/7/4 274/7/4
f 274/2/4 265/2/4 275/2/4
f 266/10/4 267/10/4 276/10/4
f 267/11/4 268/11/4 277/11/4
f 276/10/4 267/10/4 277/10/4
f 268/8/4 269/8/4 278/8/4
f 277/11/4 268/11/4 278/11/4
f 269/3/4 270/3/4 279/3/4
f 278/8/4 269/8/4 279/8/4
f 270/7/4 271/7/4 280/7/4
f 279/3/4 270/3/4 280/3/4
f 272/2/4 273/2/4 281/2/4
f 280/7/4 271/7/4 281/7/4
f 271/2/4 272/2/4 281/2/4
f 273/7/4 274/7/4 282/7/4
f 281/2/4 273/2/4 282/2/4
f 274/8/4 275/8/4 283/8/4
f 282/7/4 274/7/4 283/7/4
f 283/8/4 275/8/4 284/8/4
f 276/11/4 277/11/4 285/11/4
f 277/10/4 278/10/4 286/10/4
f 285/11/4 277/11/4 286/11/4
f 279/7/4 280/7/4 287/7/4
f 286/10/4 278/10/4 287/10/4
f 278/7/4 279/7/4 287/7/4
f 287/7/4 280/7/4 288/7/4
f 280/8/4 281/8/4 289/8/4
f 288/7/4 280/7/4 289/7/4
f 281/7/4 282/7/4 290/7/4
f 289/8/4 281/8/4 290/8/4
f 290/7/4 282/7/4 291/7/4
f 282/8/4 283/8/4 292/8/4
f 291/7/4 282/7/4 292/7/4
f 283/7/4 284/7/4 293/7/4
f 292/8/4 283/8/4 293/8/4
f 293/7/4 284/7/4 294/7/4
f 285/10/4 286/10/4 295/10/4
f 286/11/4 287/11/4 296/11/4
f 295/10/4 286/10/4 296/10/4
f 287/8/4 288/8/4 297/8/4
f 296/11/4 287/11/4 297/11/4
f 288/4/4 289/4/4 298/4/4
f 297/8/4 288/8/4 298/8/4
f 289/7/4 290/7/4 299/7/4
f 298/4/4 289/4/4 299/4/4
f 290/8/4 291/8/4 300/8/4
f 299/7/4 290/7/4 300/7/4
f 291/4/4 292/4/4 301/4/4
f 300/8/4 291/8/4 301/8/4
f 292/7/4 293/7/4 302/7/4
f 301/4/4 292/4/4 302/4/4
f 293/3/4 294/3/4 303/3/4
f 302/7/4 293/7/4 303/7/4
f 303/3/4 294/3/4 304/3/4
f 295/11/4 296/11/4 305/11/4
f 296/10/4 297/10/4 306/10/4
f 305/11/4 296/11/4 306/11/4
f 297/7/4 298/7/4 307/7/4
f 306/10/4 297/10/4 307/10/4
f 299/8/4 300/8/4 308/8/4
f 307/7/4 298/7/4 308/7/4
f 298/8/4 299/8/4 308/8/4
f 308/8/4 300/8/4 309/8/4
f 300/7/4 301/7/4 310/7/4
f 309/8/4 300/8/4 310/8/4
f 301/7/4 302/7/4 310/7/4
f 310/7/4 302/7/4 311/7/4
f 303/2/4 304/2/4 312/2/4
f 302/8/4 303/8/4 312/8/4
f 312/2/4 304/2/4 313/2/4
f 305/10/4 306/10/4 314/10/4
f 306/11/4 307/11/4 315/11/4
f 314/10/4 306/10/4 315/10/4
f 307/8/4 308/8/4 316/8/4
f 315/11/4 307/11/4 316/11/4
f 308/7/4 309/7/4 317/7/4
f 316/8/4 308/8/4 317/8/4
f 309/8/4 310/8/4 318/8/4
f 317/7/4 309/7/4 318/7/4
f 310/5/4 311/5/4 319/5/4
f 318/8/4 310/8/4 319/8/4
f 311/7/4 302/7/4 320/7/4
f 319/5/4 311/5/4 320/5/4
f 302/8/4 312/8/4 321/8/4
f 320/7/4 302/7/4 321/7/4
f 312/8/4 313/8/4 321/8/4
f 321/8/4 313/8/4 322/8/4
f 329/7/5 324/7/5 323/7/5
f 329/1/5 325/1/5 324/1/5
f 330/7/5 326/7/5 325/7/5
f 330/1/5 325/1/5 329/1/5
f 331/1/5 327/1/5 326/1/5
f 331/7/5 326/7/5 330/7/5
f 332/7/5 328/7/5 327/7/5
f 332/1/5 327/1/5 331/1/5
f 333/7/5 331/7/5 330/7/5
f 333/7/5 328/7/5 332/7/5
f 333/7/5 332/7/5 331/7/5
f 333/7/5 330/7/5 329/7/5
f 334/7/5 328/7/5 333/7/5
f 335/7/5 333/7/5 329/7/5
f 335/8/5 334/8/5 333/8/5
f 336/8/5 334/8/5 335/8/5
f 337/7/5 335/7/5 329/7/5
f 337/5/5 336/5/5 335/5/5
f 338/5/5 336/5/5 337/5/5
f 339/7/5 329/7/5 323/7/5
f 339/7/5 337/7/5 329/7/5
f 339/7/5 338/7/5 337/7/5
f 340/7/5 338/7/5 339/7/5
f 343/7/5 342/7/5 341/7/5
f 344/7/5 342/7/5 343/7/5
f 345/7/5 343/7/5 341/7/5
f 345/5/5 344/5/5 343/5/5
f 346/5/5 344/5/5 345/5/5
f 347/7/5 345/7/5 341/7/5
f 347/7/5 346/7/5 345/7/5
f 348/7/5 346/7/5 347/7/5
f 349/7/5 346/7/5 348/7/5
f 350/7/5 346/7/5 349/7/5
f 351/7/5 346/7/5 350/7/5
f 352/7/5 346/7/5 351/7/5
f 353/7/5 346/7/5 352/7/5
f 354/11/5 348/11/5 347/11/5
f 355/10/5 349/10/5 348/10/5
f 355/11/5 348/11/5 354/11/5
f 356/11/5 350/11/5 349/11/5
f 356/10/5 349/10/5 355/10/5
f 357/10/5 351/10/5 350/10/5
f 357/11/5 350/11/5 356/11/5
f 358/11/5 352/11/5 351/11/5
f 358/10/5 351/10/5 357/10/5
f 359/10/5 353/10/5 352/10/5
f 359/11/5 352/11/5 358/11/5
f 360/10/5 353/10/5 359/10/5
f 361/7/6 362/7/6 367/7/6
f 362/9/6 363/9/6 367/9/6
f 363/7/6 364/7/6 368/7/6
f 367/9/6 363/9/6 368/9/6
f 364/8/6 365/8/6 369/8/6
f 368/7/6 364/7/6 369/7/6
f 365/5/6 366/5/6 370/5/6
f 369/8/6 365/8/6 370/8/6
f 368/7/6 369/7/6 371/7/6
f 367/7/6 368/7/6 371/7/6
f 369/9/6 370/9/6 371/9/6
f 370/5/6 366/5/6 372/5/6
f 371/9/6 370/9/6 372/9/6
f 367/7/6 371/7/6 373/7/6
f 361/7/6 367/7/6 373/7/6
f 371/7/6 372/7/6 373/7/6
f 373/7/6 372/7/6 374/7/6
f 372/5/6 366/5/6 375/5/6
f 374/7/6 372/7/6 375/7/6
f 375/5/6 366/5/6 376/5/6
f 373/9/6 374/9/6 377/9/6
f 374/7/6 375/7/6 378/7/6
f 377/9/6 374/9/6 378/9/6
f 375/7/6 376/7/6 378/7/6
f 377/7/6 378/7/6 379/7/6
f 378/7/6 376/7/6 380/7/6
f 379/7/6 378/7/6 380/7/6
f 380/7/6 376/7/6 381/7/6
f 381/7/6 376/7/6 382/7/6
f 379/9/6 380/9/6 383/9/6
f 380/7/6 381/7/6 384/7/6
f 383/9/6 380/9/6 384/9/6
f 383/7/6 384/7/6 385/7/6
f 381/8/6 382/8/6 386/8/6
f 385/7/6 384/7/6 386/7/6
f 384/7/6 381/7/6 386/7/6
f 386/8/6 382/8/6 387/8/6
f 388/7/6 389/7/6 391/7/6
f 389/5/6 390/5/6 391/5/6
f 391/5/6 390/5/6 392/5/6
f 388/7/6 391/7/6 393/7/6
f 391/7/6 392/7/6 393/7/6
f 393/7/6 392/7/6 394/7/6
f 388/7/6 393/7/6 395/7/6
f 395/7/6 393/7/6 396/7/6
f 396/7/6 393/7/6 397/7/6
f 393/8/6 394/8/6 398/8/6
f 397/7/6 393/7/6 398/7/6
f 398/8/6 394/8/6 399/8/6
f 388/7/6 395/7/6 400/7/6
f 400/7/6 395/7/6 401/7/6
f 395/8/6 396/8/6 402/8/6
f 401/7/6 395/7/6 402/7/6
f 396/7/6 397/7/6 403/7/6
f 402/8/6 396/8/6 403/8/6
f 397/2/6 398/2/6 404/2/6
f 403/7/6 397/7/6 404/7/6
f 398/7/6 399/7/6 405/7/6
f 404/2/6 398/2/6 405/2/6
f 400/8/6 401/8/6 406/8/6
f 401/7/6 402/7/6 407/7/6
f 406/8/6 401/8/6 407/8/6
f 402/7/6 403/7/6 407/7/6
f 403/7/6 404/7/6 407/7/6
f 407/7/6 404/7/6 408/7/6
f 408/7/6 404/7/6 409/7/6
f 404/8/6 405/8/6 410/8/6
f 409/7/6 404/7/6 410/7/6
f 405/7/6 399/7/6 411/7/6
f 410/8/6 405/8/6 411/8/6
f 411/7/6 399/7/6 412/7/6
f 408/2/6 409/2/6 413/2/6
f 406/7/6 407/7/6 413/7/6
f 407/7/6 408/7/6 413/7/6
f 409/7/6 410/7/6 414/7/6
f 413/2/6 409/2/6 414/2/6
f 410/7/6 411/7/6 414/7/6
f 411/2/6 412/2/6 415/2/6
f 414/7/6 411/7/6 415/7/6
f 415/2/6 412/2/6 416/2/6
f 406/7/6 413/7/6 417/7/6
f 413/7/6 414/7/6 417/7/6
f 415/7/6 416/7/6 417/7/6
f 414/7/6 415/7/6 417/7/6
f 417/7/6 416/7/6 418/7/6
f 418/7/6 416/7/6 419/7/6
f 419/7/6 416/7/6 420/7/6
f 420/7/6 416/7/6 421/7/6
f 421/7/6 416/7/6 422/7/6
f 422/7/6 416/7/6 423/7/6
f 417/2/6 418/2/6 424/2/6
f 418/8/6 419/8/6 425/8/6
f 424/2/6 418/2/6 425/2/6
f 419/7/6 420/7/6 426/7/6
f 425/8/6 419/8/6 426/8/6
f 420/3/6 421/3/6 427/3/6
f 426/7/6 420/7/6 427/7/6
f 421/2/6 422/2/6 428/2/6
f 427/3/6 421/3/6 428/3/6
f 422/8/6 423/8/6 429/8/6
f 428/2/6 422/2/6 429/2/6
f 429/8/6 423/8/6 430/8/6
